# xmcd
#
# Track frame offsets: 
#        150
#        17030
#        36951
#        60772
#        74943
#        90207
#        110959
#        128191
#        143998
#        161286
#        182563
#        200195
#        218944
#        239449
#        257545
#
# Disc length: 3671 seconds
#
# Revision: 1
# Processed by: cddbd v1.5.2PL0 Copyright (c) Steve Scherf et al.
# Submitted via: ExactAudioCopy v1.0b3
#
DISCID=dc0e550f
DTITLE=Quintus McCormick Blues Band - Hey Jodie !
DYEAR=2009
DGENRE=Blues
TTITLE0=Hey Jodie! (Take Good Care Of My Baby)
TTITLE1=Get You Some Business
TTITLE2=What Goes Around Comes Around
TTITLE3=You Should Learn From This
TTITLE4=Fifty\\Fifty
TTITLE5=You Got To Do Me Better Than That
TTITLE6=I'm Alright Now
TTITLE7=Get That Money
TTITLE8=Hot Lovin' Woman
TTITLE9=Plano Texas Blues
TTITLE10=I'm A Good Man, Baby
TTITLE11=I Wasn't Thinking
TTITLE12=There Ain't No Right Way To Do Wrong
TTITLE13=You Got It
TTITLE14=Let The Good Times Roll
EXTD=
EXTT0=
EXTT1=
EXTT2=
EXTT3=
EXTT4=
EXTT5=
EXTT6=
EXTT7=
EXTT8=
EXTT9=
EXTT10=
EXTT11=
EXTT12=
EXTT13=
EXTT14=
PLAYORDER=
